<svg style="background-color:transparent"
    cached="false"
    export-id="53f67edf6dcc4bf5875504ec29449d70"
    id="pool_table"
    project-id="774e8e47fff949279bfa9e32e4a54aa7"
    shape-rendering="geometricPrecision"
    text-rendering="geometricPrecision"
    viewBox="0 0 612 459"
    xmlns="http://www.w3.org/2000/svg">
    <path
        d="M291.14631,94.12086c2.17885,1.96388,5.45302,3.07464,9.52927,3.07464s7.4357-1.11075,9.69481-3.07464h237.8172c1.02709,6.80472,6.232,12.27676,12.98002,13.83604l.01556,231.18341c-6.34187,1.07126-11.48877,5.56133-13.39026,11.46228l-239.89628-.00096c-2.0401-.97924-4.49841-1.5119-7.22106-1.51535-2.73919-.00347-5.18662.52959-7.20357,1.51529l-238.04167-.00095c-1.76615-5.47858-6.32986-9.74071-12.04994-11.17922v-232.82645c5.77407-1.82819,10.20525-6.58046,11.47307-12.47409h236.29285Z"
        fill="none"
        id="pool_table-u-table"
        stroke="#047a0c"
        stroke-width="5" />
    <path
        d="M29.506846,81.197056c9.307905-8.798012,20.783064,7.46013,29.947406,14.178962l228.01921-1.341052c1.446659-1.446659.661565-21.59127,13.202119-21.532315s10.48875,21.403536,12.837909,21.873367l231.290795.658948c2.837654-.658948,22.746344-24.977062,31.334769-14.155807s-7.129037,19.787399-14.837911,30.311614l-.341052,225.996055c6.352568,5.811515,23.804398,19.67173,15.280739,28.016873s-24.880706-9.198254-31.754442-13.861066c-15.981283-.081729-130.117917-.740678-231.290795-1.317897-1.142024,8.513074-2.624234,21.067278-12.520015,21.427393s-10.202116-7.24843-12.83791-21.086341L58.114474,352.595803C47.196591,361.220092,36.175095,374.479298,28.467697,365.206s8.65542-20.654247,14.791263-28.162923l.403694-225.511251c-7.597198-9.987797-23.463713-21.536758-14.155808-30.33477Z"
        fill="none"
        id="pool_table-u-rail"
        stroke="#19f604"
        stroke-width="5"
        transform="translate(.000003 0.000001)" />
</svg>
